# xmcd CD database file
#
# Track frame offsets:
#	150
#	35920
#	84272
#	128994
#	182377
#	223655
#
# Disc length: 3797 seconds
#
# Revision: 0
# Processed by: cddbd v1.5.2PL0 Copyright (c) Steve Scherf et al.
# Submitted via: CDex 1.70beta2
#
DISCID=4d0ed306
DTITLE=Headhunters - Live In Europe CD1
DYEAR=2008
DGENRE=Jazz
TTITLE0=4 String Drive
TTITLE1=Swamp Thing
TTITLE2=Sly
TTITLE3=Watermelon Man
TTITLE4=Loft Funk
TTITLE5=Butterfly
EXTD=YEAR: 2008
EXTT0=
EXTT1=
EXTT2=
EXTT3=
EXTT4=
EXTT5=
PLAYORDER=
